<svg width="216" height="74" viewBox="0 0 216 74" fill="none" xmlns="http://www.w3.org/2000/svg">
<path d="M46.5632 37L52.5632 49L64.5632 25H52.5632L46.5632 37Z" fill="black"/>
<path d="M4.56323 49H40.5632L46.5632 37L40.5632 25H4.56323L2.36455 29.3974C-0.0284372 34.1833 -0.0284365 39.8167 2.36455 44.6026L4.56323 49Z" fill="black"/>
<path d="M64.5632 1H27.0698C20.6307 1 14.7442 4.63804 11.8645 10.3974L4.56323 25H40.5632L46.5632 37L52.5632 25L64.5632 1Z" fill="black"/>
<path d="M11.8645 63.6026C14.7442 69.362 20.6307 73 27.0698 73H64.5632L52.5632 49H40.5632H4.56323L11.8645 63.6026Z" fill="black"/>
<path d="M40.5632 49H52.5632M40.5632 49L46.5632 37M40.5632 49H4.56323M52.5632 49L64.5632 73H27.0698C20.6307 73 14.7442 69.362 11.8645 63.6026L4.56323 49M52.5632 49L64.5632 25H52.5632M52.5632 49L46.5632 37M52.5632 25L64.5632 1H27.0698C20.6307 1 14.7442 4.63804 11.8645 10.3974L4.56323 25M52.5632 25L46.5632 37M46.5632 37L40.5632 25H4.56323M4.56323 49L2.36455 44.6026C-0.0284365 39.8167 -0.0284372 34.1833 2.36455 29.3974L4.56323 25" stroke="white" stroke-width="0.5"/>
<path d="M99.684 24.728V29.66H89.388V34.988H97.092V39.776H89.388V50H83.232V24.728H99.684ZM106.016 27.824C104.936 27.824 104.048 27.512 103.352 26.888C102.68 26.24 102.344 25.448 102.344 24.512C102.344 23.552 102.68 22.76 103.352 22.136C104.048 21.488 104.936 21.164 106.016 21.164C107.072 21.164 107.936 21.488 108.608 22.136C109.304 22.76 109.652 23.552 109.652 24.512C109.652 25.448 109.304 26.24 108.608 26.888C107.936 27.512 107.072 27.824 106.016 27.824ZM109.076 29.912V50H102.92V29.912H109.076ZM125.777 29.696C128.129 29.696 130.001 30.464 131.393 32C132.809 33.512 133.517 35.6 133.517 38.264V50H127.397V39.092C127.397 37.748 127.049 36.704 126.353 35.96C125.657 35.216 124.721 34.844 123.545 34.844C122.369 34.844 121.433 35.216 120.737 35.96C120.041 36.704 119.693 37.748 119.693 39.092V50H113.537V29.912H119.693V32.576C120.317 31.688 121.157 30.992 122.213 30.488C123.269 29.96 124.457 29.696 125.777 29.696ZM136.571 39.92C136.571 37.856 136.955 36.044 137.723 34.484C138.515 32.924 139.583 31.724 140.927 30.884C142.271 30.044 143.771 29.624 145.427 29.624C146.747 29.624 147.947 29.9 149.027 30.452C150.131 31.004 150.995 31.748 151.619 32.684V23.36H157.775V50H151.619V47.12C151.043 48.08 150.215 48.848 149.135 49.424C148.079 50 146.843 50.288 145.427 50.288C143.771 50.288 142.271 49.868 140.927 49.028C139.583 48.164 138.515 46.952 137.723 45.392C136.955 43.808 136.571 41.984 136.571 39.92ZM151.619 39.956C151.619 38.42 151.187 37.208 150.323 36.32C149.483 35.432 148.451 34.988 147.227 34.988C146.003 34.988 144.959 35.432 144.095 36.32C143.255 37.184 142.835 38.384 142.835 39.92C142.835 41.456 143.255 42.68 144.095 43.592C144.959 44.48 146.003 44.924 147.227 44.924C148.451 44.924 149.483 44.48 150.323 43.592C151.187 42.704 151.619 41.492 151.619 39.956ZM190.848 24.728V50H184.692V34.844L179.04 50H174.072L168.384 34.808V50H162.228V24.728H169.5L176.592 42.224L183.612 24.728H190.848ZM214.211 39.632C214.211 40.208 214.175 40.808 214.103 41.432H200.171C200.267 42.68 200.663 43.64 201.359 44.312C202.079 44.96 202.955 45.284 203.987 45.284C205.523 45.284 206.591 44.636 207.191 43.34H213.743C213.407 44.66 212.795 45.848 211.907 46.904C211.043 47.96 209.951 48.788 208.631 49.388C207.311 49.988 205.835 50.288 204.203 50.288C202.235 50.288 200.483 49.868 198.947 49.028C197.411 48.188 196.211 46.988 195.347 45.428C194.483 43.868 194.051 42.044 194.051 39.956C194.051 37.868 194.471 36.044 195.311 34.484C196.175 32.924 197.375 31.724 198.911 30.884C200.447 30.044 202.211 29.624 204.203 29.624C206.147 29.624 207.875 30.032 209.387 30.848C210.899 31.664 212.075 32.828 212.915 34.34C213.779 35.852 214.211 37.616 214.211 39.632ZM207.911 38.012C207.911 36.956 207.551 36.116 206.831 35.492C206.111 34.868 205.211 34.556 204.131 34.556C203.099 34.556 202.223 34.856 201.503 35.456C200.807 36.056 200.375 36.908 200.207 38.012H207.911Z" fill="black"/>
</svg>
