<svg width="82" height="74" viewBox="0 0 82 74" fill="none" xmlns="http://www.w3.org/2000/svg">
<path d="M46.5632 37L52.5632 49L64.5632 25H52.5632L46.5632 37Z" fill="black"/>
<path d="M4.56323 49H40.5632L46.5632 37L40.5632 25H4.56323L2.36455 29.3974C-0.0284372 34.1833 -0.0284365 39.8167 2.36455 44.6026L4.56323 49Z" fill="black"/>
<path d="M64.5632 1H27.0698C20.6307 1 14.7442 4.63804 11.8645 10.3974L4.56323 25H40.5632L46.5632 37L52.5632 25L64.5632 1Z" fill="black"/>
<path d="M11.8645 63.6026C14.7442 69.362 20.6307 73 27.0698 73H64.5632L52.5632 49H40.5632H4.56323L11.8645 63.6026Z" fill="black"/>
<path d="M40.5632 49H52.5632M40.5632 49L46.5632 37M40.5632 49H4.56323M52.5632 49L64.5632 73H27.0698C20.6307 73 14.7442 69.362 11.8645 63.6026L4.56323 49M52.5632 49L64.5632 25H52.5632M52.5632 49L46.5632 37M52.5632 25L64.5632 1H27.0698C20.6307 1 14.7442 4.63804 11.8645 10.3974L4.56323 25M52.5632 25L46.5632 37M46.5632 37L40.5632 25H4.56323M4.56323 49L2.36455 44.6026C-0.0284365 39.8167 -0.0284372 34.1833 2.36455 29.3974L4.56323 25" stroke="white" stroke-width="0.5"/>
</svg>
