<svg width="132" height="30" viewBox="0 0 132 30" fill="none" xmlns="http://www.w3.org/2000/svg">
<path d="M16.684 3.728V8.66H6.388V13.988H14.092V18.776H6.388V29H0.232V3.728H16.684ZM23.0155 6.824C21.9355 6.824 21.0475 6.512 20.3515 5.888C19.6795 5.24 19.3435 4.448 19.3435 3.512C19.3435 2.552 19.6795 1.76 20.3515 1.136C21.0475 0.487998 21.9355 0.163998 23.0155 0.163998C24.0715 0.163998 24.9355 0.487998 25.6075 1.136C26.3035 1.76 26.6515 2.552 26.6515 3.512C26.6515 4.448 26.3035 5.24 25.6075 5.888C24.9355 6.512 24.0715 6.824 23.0155 6.824ZM26.0755 8.912V29H19.9195V8.912H26.0755ZM42.7767 8.696C45.1287 8.696 47.0007 9.464 48.3927 11C49.8087 12.512 50.5167 14.6 50.5167 17.264V29H44.3967V18.092C44.3967 16.748 44.0487 15.704 43.3527 14.96C42.6567 14.216 41.7207 13.844 40.5447 13.844C39.3687 13.844 38.4327 14.216 37.7367 14.96C37.0407 15.704 36.6927 16.748 36.6927 18.092V29H30.5367V8.912H36.6927V11.576C37.3167 10.688 38.1567 9.992 39.2127 9.488C40.2687 8.96 41.4567 8.696 42.7767 8.696ZM53.5705 18.92C53.5705 16.856 53.9545 15.044 54.7225 13.484C55.5145 11.924 56.5825 10.724 57.9265 9.884C59.2705 9.044 60.7705 8.624 62.4265 8.624C63.7465 8.624 64.9465 8.9 66.0265 9.452C67.1305 10.004 67.9945 10.748 68.6185 11.684V2.36H74.7745V29H68.6185V26.12C68.0425 27.08 67.2145 27.848 66.1345 28.424C65.0785 29 63.8425 29.288 62.4265 29.288C60.7705 29.288 59.2705 28.868 57.9265 28.028C56.5825 27.164 55.5145 25.952 54.7225 24.392C53.9545 22.808 53.5705 20.984 53.5705 18.92ZM68.6185 18.956C68.6185 17.42 68.1865 16.208 67.3225 15.32C66.4825 14.432 65.4505 13.988 64.2265 13.988C63.0025 13.988 61.9585 14.432 61.0945 15.32C60.2545 16.184 59.8345 17.384 59.8345 18.92C59.8345 20.456 60.2545 21.68 61.0945 22.592C61.9585 23.48 63.0025 23.924 64.2265 23.924C65.4505 23.924 66.4825 23.48 67.3225 22.592C68.1865 21.704 68.6185 20.492 68.6185 18.956ZM107.848 3.728V29H101.692V13.844L96.0401 29H91.0721L85.3841 13.808V29H79.2281V3.728H86.5001L93.5921 21.224L100.612 3.728H107.848ZM131.211 18.632C131.211 19.208 131.175 19.808 131.103 20.432H117.171C117.267 21.68 117.663 22.64 118.359 23.312C119.079 23.96 119.955 24.284 120.987 24.284C122.523 24.284 123.591 23.636 124.191 22.34H130.743C130.407 23.66 129.795 24.848 128.907 25.904C128.043 26.96 126.951 27.788 125.631 28.388C124.311 28.988 122.835 29.288 121.203 29.288C119.235 29.288 117.483 28.868 115.947 28.028C114.411 27.188 113.211 25.988 112.347 24.428C111.483 22.868 111.051 21.044 111.051 18.956C111.051 16.868 111.471 15.044 112.311 13.484C113.175 11.924 114.375 10.724 115.911 9.884C117.447 9.044 119.211 8.624 121.203 8.624C123.147 8.624 124.875 9.032 126.387 9.848C127.899 10.664 129.075 11.828 129.915 13.34C130.779 14.852 131.211 16.616 131.211 18.632ZM124.911 17.012C124.911 15.956 124.551 15.116 123.831 14.492C123.111 13.868 122.211 13.556 121.131 13.556C120.099 13.556 119.223 13.856 118.503 14.456C117.807 15.056 117.375 15.908 117.207 17.012H124.911Z" fill="black"/>
</svg>
